<svg xmlns="http://www.w3.org/2000/svg" viewBox="0 0 512 512"><title>round-icon-white-facebook</title><circle cx="256" cy="256" r="256" style="fill:#fff"/><path d="M324.5,209.12c-1.34,14-2.7,27.94-3.76,41.89-.28,3.51-1.84,4.08-4.82,4-10.93-.09-21.84.09-32.76-.11-3.54-.05-4.5,1.18-4.47,4.58.12,23.4.05,46.8.05,70.2s0,46.82,0,70.21c0,4.68-.12,4.83-4.88,4.83H223.1c-4.85,0-5-.11-5-5.14V261.73c0-6,0-6-5.82-6-7.09,0-14.16-.11-21.25,0-3,.07-4-1-4-4,.11-14.54.11-29,0-43.57,0-3,1.23-3.92,4.09-3.88,7.68.13,15.35-.07,23.06.11,3,.05,4-1,4-3.94-.11-12.37-.2-24.75,0-37.1.23-13.94,2.84-27.22,12.41-38.17,7.89-9,18.28-13.37,29.63-15.79a104.76,104.76,0,0,1,22.88-2.19q18.7.14,37.43,0c3.31-.05,4.39,1.09,4.35,4.39-.13,14.63-.14,29.3,0,43.91,0,3.54-1.25,4.56-4.62,4.49-9.36-.16-18.74-.08-28.11,0-9.64.06-13.3,3.63-13.42,13.28-.11,9,.09,18-.08,27-.05,3.08.9,4.22,4.1,4.18,12.47-.15,25-.07,37.46-.05C324.74,204.41,324.91,204.79,324.5,209.12Z" style="fill:#262526;fill-rule:evenodd"/></svg>