<svg xmlns="http://www.w3.org/2000/svg" viewBox="0 0 512 512"><title>round-icon-white-twitter</title><circle cx="256" cy="256" r="256" style="fill:#fff"/><path d="M411.66,159.39v.31c-.39.16-.55.46-.79.79a127.11,127.11,0,0,1-29.85,31,2.89,2.89,0,0,0-1.18,2.62,179,179,0,0,1-1.51,30.56A192.6,192.6,0,0,1,361,281.41a181.76,181.76,0,0,1-46.8,60.41,168.18,168.18,0,0,1-63.89,33.82,190.92,190.92,0,0,1-60.17,6.88,187.3,187.3,0,0,1-25.66-2.92,179.55,179.55,0,0,1-57-21.07c-2.38-1.34-4.75-2.84-7.13-4.27a1.87,1.87,0,0,0,.17-.32,128.64,128.64,0,0,0,93.9-26.36c-2.14-.17-4-.24-5.78-.49a39.47,39.47,0,0,1-5.39-.79c-23.44-5.37-39.34-19.32-47.89-41.71-.55-1.52-.4-1.59,1-1.36a63.35,63.35,0,0,0,25.65-.87c.32-.08.71,0,.87-.54l-.94-.25a62.7,62.7,0,0,1-34.36-21.05,61.67,61.67,0,0,1-15.05-39.44c-.08-2.53-.08-2.53,2.14-1.42a68.63,68.63,0,0,0,22.24,6.49c1.27.16,2.46.16,3.73.23,0-.47-.24-.56-.47-.71a77.25,77.25,0,0,1-9.82-8.56,61.57,61.57,0,0,1-9.74-13.38,63.65,63.65,0,0,1-7.6-33.57,65.26,65.26,0,0,1,7.91-28c.55-1,.87-1,1.58-.16a175,175,0,0,0,24.86,24.78,180,180,0,0,0,63.89,33.89,177.12,177.12,0,0,0,40.15,7c2,.09,1.9.16,1.58-1.73a64.76,64.76,0,0,1-.32-23.76,64,64,0,0,1,51.39-51.87c2.2-.39,4.35-.63,6.57-1h9.58a6.87,6.87,0,0,0,2.53.31,63.25,63.25,0,0,1,38.57,18.78,2.69,2.69,0,0,0,2.69.79,127.38,127.38,0,0,0,37.45-14.34,2.14,2.14,0,0,1,1.5-.47,64.76,64.76,0,0,1-27.24,34.76,116.11,116.11,0,0,0,26-5.94C405,162,408.34,160.66,411.66,159.39Z" style="fill:#262526;fill-rule:evenodd"/></svg>