<svg xmlns="http://www.w3.org/2000/svg" viewBox="0 0 512 512"><title>round-icon-white-tumblr</title><circle cx="256" cy="256" r="256" style="fill:#fff"/><path d="M350.22,343.08v42.59c0,1.86-.37,3.34-2.33,4.27-34.21,15-68.88,21.57-105,7.34A73.17,73.17,0,0,1,218,380.83c-10.32-10.14-14.51-22.87-14.6-36.91-.18-36.16-.28-72.33-.09-108.49,0-5.49-1.2-7.35-6.87-7.06-10,.46-20,.09-30,.18-3.07.09-4.75-.37-4.65-4.08.28-11.25.28-22.41,0-33.57-.1-3.62,1.85-4.28,4.46-5.2,10.13-3.54,20.27-7.45,28.82-14.32,18.78-15.16,27.62-35.6,31-59,.65-4.18,1.67-5.75,6.14-5.57,10.41.37,20.73.46,31.14,0,4.84-.19,5.48,1.58,5.39,5.76-.18,19.25.09,38.4-.18,57.54-.1,5.22,1.57,6.33,6.41,6.24,19.43-.19,38.76,0,58.19-.19,4.19,0,5.39,1,5.3,5.31-.28,13.94-.28,28,0,41.92.09,4.47-1.48,5.2-5.48,5.2-19.8-.18-39.6-.09-59.31-.18-3.44,0-5.11.55-5.11,4.56.18,29.93-.19,60,.46,89.9.56,23.88,14.69,35.7,38.77,34.3C322.8,356.37,336.46,351.44,350.22,343.08Z" style="fill:#262526;fill-rule:evenodd"/></svg>